<?xml version="1.0" encoding="utf-8"?>
<!-- Generator: Adobe Illustrator 28.3.0, SVG Export Plug-In . SVG Version: 6.00 Build 0)  -->
<svg version="1.1" id="Layer_1" xmlns="http://www.w3.org/2000/svg" xmlns:xlink="http://www.w3.org/1999/xlink" x="0px" y="0px"
	 viewBox="0 0 1042 381.15" style="enable-background:new 0 0 1042 381.15;" xml:space="preserve">
<style type="text/css">
	.st0{fill:#FFFFFF;}
	.st1{fill:#ED5C15;}
</style>
<g id="Solar_Enterprises_White">
	<g>
		<path class="st0" d="M509.53,205.39c-8.75-0.22-17.17,0.27-25.59-0.35c-3.34-0.25-6.61-0.82-9.83-1.73
			c-11.88-3.36-17.92-12-20.93-23.31c-2.2-8.28-2.57-16.77-2.56-25.29c0.01-11.5-0.04-23.01,0.06-34.51
			c0.07-8.18,0.86-16.28,3.4-24.14c4.15-12.87,13.09-19.86,26.31-21.64c2.72-0.37,5.48-0.6,8.22-0.61
			c14.34-0.04,28.69-0.04,43.03,0.05c5.7,0.04,11.31,0.95,16.58,3.22c10.16,4.39,15.18,12.77,17.57,23.1
			c1.62,7.01,2.23,14.16,2.23,21.33c0,14,0.37,28.01-0.24,42.01c-0.29,6.74-1.2,13.41-3.29,19.89c-4,12.41-12.62,19.16-25.32,21.08
			C529.21,205.99,519.19,205.05,509.53,205.39z M544.33,139.52c-0.35-9.41,0.43-18.84-0.54-28.25c-0.81-7.82-3.78-12.02-9.62-13.23
			c-1.87-0.39-3.8-0.6-5.7-0.61c-12.85-0.05-25.69-0.07-38.54-0.01c-9.83,0.04-13.94,3.77-15.14,13.51c-0.06,0.5-0.07,1-0.11,1.5
			c-0.88,9.99-0.37,20-0.41,30c-0.04,8.25-0.31,16.5,0.42,24.75c0.82,9.29,4.66,13.98,12.89,14.15c14.42,0.28,28.86,0.23,43.29,0.02
			c6.93-0.1,10.6-3.3,12.21-9.65c0.35-1.37,0.57-2.78,0.72-4.18c0.99-9.32,0.19-18.67,0.54-28H544.33z"/>
		<path class="st0" d="M992.97,150.59c5.3,9.09,10.44,17.93,15.59,26.76c3.9,6.69,7.82,13.36,11.7,20.05
			c2.75,4.74,0.89,7.94-4.57,7.94c-4.75,0-9.51-0.1-14.26,0.04c-3.2,0.09-5.25-1.14-6.83-3.96c-8.9-15.99-17.98-31.89-26.87-47.89
			c-1.14-2.05-2.39-2.66-4.64-2.63c-9.42,0.13-18.85,0.1-28.27,0c-1.79-0.02-2.18,0.49-2.17,2.21c0.07,15.17,0.04,30.35,0.04,45.52
			c0,5.36-1.33,6.7-6.58,6.7c-3.67,0-7.34,0-11.01,0c-4.47-0.01-5.98-1.46-6.04-6c-0.06-4.42-0.02-8.84-0.02-13.26
			c0-17.18,0-34.35,0-51.53c0-1.17-0.02-2.35,0.16-3.49c0.35-2.25,1.67-3.57,4.01-3.72c0.75-0.05,1.5-0.03,2.25-0.03
			c22.1,0,44.2,0,66.3,0c7.87,0,10.94-2.59,11.88-10.38c0.45-3.72,0.43-7.48-0.33-11.2c-1.17-5.73-4.21-8.31-10.08-8.32
			c-12.01-0.03-24.02-0.01-36.03-0.01c-10.84,0-21.68,0-32.53,0c-4.01,0-5.51-1.35-5.59-5.31c-0.09-4.42-0.1-8.84,0.03-13.25
			c0.11-3.73,1.59-5.06,5.3-5.06c24.35-0.01,48.71,0,73.06,0c3.18,0,6.32,0.3,9.41,1.08c7.39,1.86,12.89,6.03,16.01,13.1
			c4.75,10.76,5.52,22.02,4.17,33.53c-0.53,4.56-1.57,9-3.24,13.3c-3.29,8.49-9.49,13.44-18.33,15.24
			c-0.73,0.15-1.46,0.33-2.53,0.58L992.97,150.59z"/>
		<path class="st0" d="M352.79,205.08c-12.1,0-24.19,0-36.29,0c-4.19,0-5.58-1.22-5.7-5.43c-0.12-4.33-0.12-8.67,0.04-13
			c0.15-3.9,1.6-5.15,5.48-5.15c21.77,0,43.54,0,65.32,0c5.35,0,7.25-1.68,7.4-7.09c0.16-5.75,0.27-11.52-0.04-17.26
			c-0.3-5.55-2.41-6.89-7.1-6.84c-15.18,0.17-30.36,0.09-45.55,0.04c-2.58,0-5.19-0.16-7.72-0.59c-6.84-1.17-11.63-5.02-14.35-11.46
			c-2.13-5.05-3.23-10.33-3.44-15.77c-0.35-8.99-0.84-18,0.64-26.95c0.55-3.3,1.63-6.44,3.13-9.44
			c3.95-7.88,10.42-11.87,19.15-12.29c2.08-0.1,4.17-0.07,6.25-0.07c21.27,0,42.54,0,63.82,0c3.84,0,5.31,1.43,5.35,5.25
			c0.05,4.42,0.06,8.84,0,13.26c-0.05,3.63-1.6,5.11-5.26,5.11c-20.94,0.01-41.88,0-62.81,0c-4.4,0-6.05,1.15-6.43,5.51
			c-0.54,6.06-0.49,12.18-0.02,18.24c0.32,4.1,2.17,5.48,6.26,5.48c14.6,0,29.2,0.31,43.79-0.07c17.89-0.46,25.2,9.25,27.11,22.62
			c1.67,11.72,1.88,23.64-0.28,35.35c-1.6,8.62-5.7,15.82-14.64,19.06c-3.1,1.12-6.3,1.49-9.58,1.49
			C375.81,205.06,364.3,205.08,352.79,205.08L352.79,205.08z"/>
		<path class="st0" d="M805.76,102.53c-1.09,1.32-1.36,2.54-1.81,3.67c-6.09,15.38-12.17,30.76-18.25,46.14
			c-0.68,1.71-0.07,2.57,1.83,2.57c5.42,0,10.85,0.05,16.27-0.02c2.68-0.04,4.42,1.09,5.41,3.56c1.76,4.4,3.62,8.76,5.33,13.18
			c1.65,4.29-0.62,7.46-5.27,7.46c-10.68,0.01-21.36,0.04-32.03-0.03c-1.59-0.01-2.28,0.48-2.85,1.97
			c-2.52,6.6-5.2,13.14-7.83,19.69c-1.62,4.04-2.49,4.62-6.93,4.62c-4.75,0-9.51,0.01-14.26,0c-4.55-0.01-6.08-2.09-4.42-6.4
			c2.77-7.22,5.72-14.36,8.6-21.54c12-29.84,24-59.69,36.03-89.53c2.07-5.13,4.5-9.93,9.62-12.95c10.71-6.33,24.23-1.91,28.92,9.67
			c15.3,37.83,30.61,75.67,45.91,113.5c0.34,0.85,0.66,1.71,0.85,2.6c0.55,2.52-0.69,4.49-3.23,4.56c-5.92,0.14-11.84,0.11-17.76,0
			c-2.66-0.05-3.74-2.1-4.62-4.29c-6.71-16.83-13.44-33.66-20.16-50.48c-6.05-15.13-12.1-30.25-18.16-45.38
			c-0.31-0.76-0.67-1.5-1.17-2.59L805.76,102.53z"/>
		<path class="st0" d="M605.88,122.66c0-14.01,0-28.02,0.01-42.02c0-1.08,0.05-2.17,0.26-3.22c0.47-2.35,1.92-3.63,4.37-3.63
			c4.92,0,9.84-0.01,14.76,0c2.34,0.01,3.75,1.25,4.17,3.51c0.21,1.14,0.26,2.31,0.27,3.47c0.05,27.43,0.07,54.86,0.15,82.29
			c0,2.16,0.24,4.33,0.58,6.46c1.32,8.21,5.34,11.68,13.68,11.91c1.33,0.04,2.67,0.05,4,0.05c16.26,0,32.53,0,48.79,0
			c3.62,0,5.28,1.42,5.4,5.04c0.15,4.58,0.15,9.17,0,13.75c-0.11,3.42-1.73,5.05-4.95,5.03c-19.1-0.11-38.2,0.59-57.28-0.31
			c-18.43-0.86-28.6-10.05-32.22-28.22c-1.42-7.14-1.96-14.36-1.98-21.62c-0.03-10.84,0-21.68,0-32.52L605.88,122.66z"/>
	</g>
	<g id="Enterprises_logotype">
		<path class="st1" d="M996.8,312.65c-2.7,0-5.34-0.2-7.92-0.62c-2.58-0.41-5.02-1.03-7.3-1.85c-2.29-0.88-4.34-1.94-6.16-3.17
			c-0.88-0.64-1.5-1.38-1.85-2.2c-0.29-0.82-0.38-1.61-0.26-2.38c0.18-0.82,0.53-1.52,1.06-2.11c0.53-0.59,1.17-0.94,1.94-1.06
			c0.76-0.18,1.61,0.06,2.55,0.7c2.64,1.7,5.43,2.96,8.36,3.78c2.93,0.76,6.13,1.14,9.59,1.14c4.99,0,8.65-0.88,11-2.64
			c2.41-1.82,3.61-4.17,3.61-7.04c0-2.35-0.85-4.2-2.55-5.54c-1.7-1.41-4.55-2.52-8.54-3.34l-9.42-1.94
			c-5.57-1.17-9.74-3.11-12.5-5.81c-2.7-2.7-4.05-6.34-4.05-10.91c0-2.76,0.56-5.28,1.67-7.57c1.17-2.29,2.79-4.25,4.84-5.9
			c2.05-1.7,4.52-2.99,7.39-3.87c2.87-0.88,6.01-1.32,9.42-1.32c3.64,0,7.04,0.47,10.21,1.41c3.23,0.94,6.1,2.38,8.62,4.31
			c0.76,0.53,1.26,1.2,1.5,2.02c0.29,0.76,0.35,1.52,0.18,2.29c-0.12,0.76-0.44,1.41-0.97,1.94c-0.53,0.53-1.2,0.85-2.02,0.97
			c-0.82,0.06-1.73-0.23-2.73-0.88c-2.29-1.52-4.63-2.61-7.04-3.26c-2.35-0.7-4.96-1.06-7.83-1.06c-2.88,0-5.4,0.44-7.57,1.32
			c-2.11,0.88-3.75,2.11-4.93,3.7c-1.11,1.58-1.67,3.46-1.67,5.63c0,2.46,0.79,4.43,2.38,5.9c1.58,1.47,4.22,2.58,7.92,3.34
			l9.33,1.94c5.87,1.23,10.24,3.14,13.11,5.72c2.87,2.58,4.31,6.01,4.31,10.3c0,2.76-0.56,5.25-1.67,7.48
			c-1.11,2.17-2.7,4.05-4.75,5.63c-2.05,1.58-4.55,2.82-7.48,3.7C1003.69,312.24,1000.44,312.65,996.8,312.65z"/>
		<path class="st1" d="M913.75,312.07c-1.58,0-2.82-0.41-3.7-1.23c-0.82-0.88-1.23-2.11-1.23-3.7v-52.18c0-1.58,0.41-2.79,1.23-3.61
			c0.88-0.88,2.11-1.32,3.7-1.32h32.12c1.23,0,2.17,0.32,2.82,0.97c0.64,0.59,0.97,1.47,0.97,2.64c0,1.23-0.32,2.17-0.97,2.82
			c-0.65,0.64-1.58,0.97-2.82,0.97h-28.25v19.45h26.31c1.29,0,2.23,0.32,2.82,0.97c0.65,0.64,0.97,1.55,0.97,2.73
			c0,1.23-0.32,2.17-0.97,2.82c-0.59,0.59-1.53,0.88-2.82,0.88h-26.31v20.42h28.25c1.23,0,2.17,0.32,2.82,0.97
			c0.64,0.65,0.97,1.56,0.97,2.73c0,1.23-0.32,2.17-0.97,2.82c-0.65,0.59-1.58,0.88-2.82,0.88H913.75z"/>
		<path class="st1" d="M861.55,312.65c-2.7,0-5.34-0.2-7.92-0.62c-2.58-0.41-5.02-1.03-7.3-1.85c-2.29-0.88-4.34-1.94-6.16-3.17
			c-0.88-0.64-1.5-1.38-1.85-2.2c-0.29-0.82-0.38-1.61-0.26-2.38c0.18-0.82,0.53-1.52,1.06-2.11c0.53-0.59,1.17-0.94,1.94-1.06
			c0.76-0.18,1.61,0.06,2.55,0.7c2.64,1.7,5.43,2.96,8.36,3.78c2.93,0.76,6.13,1.14,9.59,1.14c4.99,0,8.65-0.88,11-2.64
			c2.41-1.82,3.61-4.17,3.61-7.04c0-2.35-0.85-4.2-2.55-5.54c-1.7-1.41-4.55-2.52-8.54-3.34l-9.42-1.94
			c-5.57-1.17-9.74-3.11-12.5-5.81c-2.7-2.7-4.05-6.34-4.05-10.91c0-2.76,0.56-5.28,1.67-7.57c1.17-2.29,2.79-4.25,4.84-5.9
			c2.05-1.7,4.52-2.99,7.39-3.87c2.87-0.88,6.01-1.32,9.42-1.32c3.64,0,7.04,0.47,10.21,1.41c3.23,0.94,6.1,2.38,8.62,4.31
			c0.76,0.53,1.26,1.2,1.5,2.02c0.29,0.76,0.35,1.52,0.18,2.29c-0.12,0.76-0.44,1.41-0.97,1.94c-0.53,0.53-1.2,0.85-2.02,0.97
			c-0.82,0.06-1.73-0.23-2.73-0.88c-2.29-1.52-4.63-2.61-7.04-3.26c-2.35-0.7-4.96-1.06-7.83-1.06c-2.88,0-5.4,0.44-7.57,1.32
			c-2.11,0.88-3.75,2.11-4.93,3.7c-1.11,1.58-1.67,3.46-1.67,5.63c0,2.46,0.79,4.43,2.38,5.9c1.58,1.47,4.22,2.58,7.92,3.34
			l9.33,1.94c5.87,1.23,10.24,3.14,13.11,5.72c2.87,2.58,4.31,6.01,4.31,10.3c0,2.76-0.56,5.25-1.67,7.48
			c-1.11,2.17-2.7,4.05-4.75,5.63c-2.05,1.58-4.55,2.82-7.48,3.7C868.44,312.24,865.19,312.65,861.55,312.65z"/>
		<path class="st1" d="M809.83,312.3c-1.47,0-2.61-0.41-3.43-1.23c-0.76-0.82-1.14-1.96-1.14-3.43v-53.94
			c0-1.52,0.38-2.67,1.14-3.43c0.82-0.82,1.97-1.23,3.43-1.23c1.47,0,2.58,0.41,3.34,1.23c0.82,0.76,1.23,1.91,1.23,3.43v53.94
			c0,1.47-0.38,2.61-1.14,3.43C812.5,311.89,811.35,312.3,809.83,312.3z"/>
		<path class="st1" d="M780.85,306.44l-7.57-14.08c-1.4-2.58-2.99-4.46-4.75-5.63c-0.74-0.51-1.54-0.91-2.41-1.19
			c1.64-0.34,3.14-0.82,4.52-1.45c3.17-1.41,5.58-3.46,7.22-6.16s2.46-5.93,2.46-9.68c0-5.81-1.81-10.3-5.45-13.46
			c-3.64-3.17-8.8-4.76-15.49-4.76h-21.03c-1.47,0-2.61,0.41-3.43,1.24c-0.82,0.76-1.24,1.9-1.24,3.43v53.33
			c0,1.46,0.39,2.61,1.15,3.43c0.82,0.82,1.96,1.23,3.43,1.23c1.53,0,2.67-0.41,3.43-1.23c0.77-0.82,1.15-1.97,1.15-3.43v-21.56
			h9.94c2.58,0,4.66,0.41,6.25,1.23c1.58,0.76,2.99,2.29,4.22,4.57l9.24,17.08c0.65,1.11,1.35,1.96,2.11,2.55
			c0.83,0.53,1.88,0.79,3.17,0.79c1.23,0,2.17-0.29,2.82-0.88c0.7-0.59,1.05-1.35,1.05-2.29
			C781.7,308.52,781.44,307.5,780.85,306.44z M757.88,279.6h-15.04v-22.26h15.04c4.46,0,7.84,0.94,10.12,2.81
			c2.29,1.88,3.44,4.64,3.44,8.28c0,3.69-1.15,6.48-3.44,8.36C765.72,278.66,762.34,279.6,757.88,279.6z"/>
		<path class="st1" d="M668.02,312.69c-1.47,0-2.61-0.41-3.43-1.23c-0.76-0.82-1.14-1.96-1.14-3.43v-53.33
			c0-1.52,0.41-2.67,1.23-3.43c0.82-0.82,1.97-1.23,3.43-1.23h21.03c6.69,0,11.85,1.67,15.49,5.02c3.64,3.28,5.46,7.92,5.46,13.9
			c0,6.04-1.82,10.74-5.46,14.08c-3.64,3.29-8.8,4.93-15.49,4.93H672.6v20.06c0,1.47-0.38,2.61-1.14,3.43
			C670.69,312.27,669.54,312.69,668.02,312.69z M672.6,280.65h15.22c4.4,0,7.71-0.97,9.94-2.9c2.29-1.99,3.43-4.93,3.43-8.8
			c0-3.81-1.14-6.69-3.43-8.62c-2.23-2-5.54-2.99-9.94-2.99H672.6V280.65z"/>
		<path class="st1" d="M639.04,306.44l-7.56-14.08c-1.41-2.58-3-4.46-4.76-5.63c-0.74-0.51-1.54-0.91-2.41-1.19
			c1.64-0.34,3.15-0.82,4.53-1.45c3.16-1.41,5.57-3.46,7.21-6.16c1.65-2.7,2.47-5.93,2.47-9.68c0-5.81-1.82-10.3-5.46-13.46
			c-3.64-3.17-8.8-4.76-15.49-4.76h-21.03c-1.47,0-2.61,0.41-3.43,1.24c-0.82,0.76-1.23,1.9-1.23,3.43v53.33
			c0,1.46,0.38,2.61,1.14,3.43c0.82,0.82,1.97,1.23,3.43,1.23c1.53,0,2.67-0.41,3.43-1.23c0.77-0.82,1.15-1.97,1.15-3.43v-21.56
			h9.94c2.58,0,4.67,0.41,6.25,1.23c1.58,0.76,2.99,2.29,4.22,4.57l9.24,17.08c0.65,1.11,1.35,1.96,2.12,2.55
			c0.82,0.53,1.87,0.79,3.16,0.79c1.24,0,2.18-0.29,2.82-0.88c0.7-0.59,1.06-1.35,1.06-2.29
			C639.9,308.52,639.63,307.5,639.04,306.44z M616.08,279.6h-15.05v-22.26h15.05c4.46,0,7.83,0.94,10.12,2.81
			c2.28,1.88,3.43,4.64,3.43,8.28c0,3.69-1.15,6.48-3.43,8.36C623.91,278.66,620.54,279.6,616.08,279.6z"/>
		<path class="st1" d="M532.37,312.07c-1.58,0-2.82-0.41-3.7-1.23c-0.82-0.88-1.23-2.11-1.23-3.7v-52.18c0-1.58,0.41-2.79,1.23-3.61
			c0.88-0.88,2.11-1.32,3.7-1.32h32.12c1.23,0,2.17,0.32,2.82,0.97c0.65,0.59,0.97,1.47,0.97,2.64c0,1.23-0.32,2.17-0.97,2.82
			c-0.65,0.64-1.58,0.97-2.82,0.97h-28.25v19.45h26.31c1.29,0,2.23,0.32,2.82,0.97c0.64,0.64,0.97,1.55,0.97,2.73
			c0,1.23-0.32,2.17-0.97,2.82c-0.59,0.59-1.53,0.88-2.82,0.88h-26.31v20.42h28.25c1.23,0,2.17,0.32,2.82,0.97
			c0.65,0.65,0.97,1.56,0.97,2.73c0,1.23-0.32,2.17-0.97,2.82c-0.65,0.59-1.58,0.88-2.82,0.88H532.37z"/>
		<path class="st1" d="M476.65,312.69c-1.47,0-2.61-0.41-3.43-1.23c-0.76-0.82-1.14-1.96-1.14-3.43v-50.34h-18.66
			c-1.23,0-2.2-0.32-2.9-0.97c-0.7-0.7-1.06-1.67-1.06-2.9c0-1.23,0.35-2.17,1.06-2.82s1.67-0.97,2.9-0.97h46.38
			c1.29,0,2.29,0.32,2.99,0.97s1.06,1.58,1.06,2.82c0,1.23-0.35,2.2-1.06,2.9c-0.7,0.64-1.7,0.97-2.99,0.97h-18.66v50.34
			c0,1.47-0.38,2.61-1.14,3.43C479.29,312.27,478.18,312.69,476.65,312.69z"/>
		<path class="st1" d="M425.86,253.35v54.64c0,1.35-0.35,2.41-1.05,3.17c-0.65,0.76-1.53,1.15-2.64,1.15
			c-1.06,0-1.94-0.21-2.64-0.62c-0.65-0.41-1.35-1.12-2.12-2.11l-34.05-45.02v43.35c0,1.4-0.35,2.49-1.06,3.25
			c-0.7,0.76-1.73,1.15-3.08,1.15c-1.35,0-2.4-0.39-3.17-1.15c-0.76-0.76-1.14-1.85-1.14-3.25v-54.3c0-1.47,0.35-2.58,1.06-3.34
			c0.76-0.83,1.76-1.24,2.99-1.24c1.05,0,1.85,0.21,2.37,0.62c0.59,0.35,1.26,1.03,2.03,2.02l34.05,44.89v-43.21
			c0-1.35,0.36-2.41,1.06-3.17c0.76-0.77,1.82-1.15,3.17-1.15c1.41,0,2.46,0.38,3.17,1.15C425.51,250.94,425.86,252,425.86,253.35z"
			/>
		<path class="st1" d="M315.4,312.07c-1.58,0-2.82-0.41-3.7-1.23c-0.82-0.88-1.23-2.11-1.23-3.7v-52.18c0-1.58,0.41-2.79,1.23-3.61
			c0.88-0.88,2.11-1.32,3.7-1.32h32.12c1.23,0,2.17,0.32,2.82,0.97c0.64,0.59,0.97,1.47,0.97,2.64c0,1.23-0.32,2.17-0.97,2.82
			c-0.65,0.64-1.58,0.97-2.82,0.97h-28.25v19.45h26.31c1.29,0,2.23,0.32,2.82,0.97c0.64,0.64,0.97,1.55,0.97,2.73
			c0,1.23-0.32,2.17-0.97,2.82c-0.59,0.59-1.52,0.88-2.82,0.88h-26.31v20.42h28.25c1.23,0,2.17,0.32,2.82,0.97
			c0.64,0.65,0.97,1.56,0.97,2.73c0,1.23-0.32,2.17-0.97,2.82c-0.65,0.59-1.58,0.88-2.82,0.88H315.4z"/>
	</g>
	<g id="Solar_logotype">
		<path class="st1" d="M54.43,221.29c-3.83-3.59-6.84-7.12-9.78-10.69c-3.61-4.38-6.86-9.01-10.02-13.73
			c-1.83-2.74-1.7-5.11,0.15-7.8c16.25-23.67,37.01-42.32,62.14-56.17c10.24-5.64,20.92-10.23,31.75-14.63
			c13.66-5.55,27.86-8.2,42.39-9.7c5.79-0.6,8.16,0.64,10.75,5.92c3.87,7.86,6.98,16.02,9.38,24.45c0.18,0.64,0.44,1.25,0.22,1.94
			c-0.97,0-1.49-0.75-2.14-1.23c-8.76-6.41-17.89-12.21-27.48-17.32c-1.35-0.72-2.53-0.96-4-0.45c-3.05,1.05-6.15,1.95-9.7,3.05
			c5.09,2.72,9.71,5.13,14.27,7.64c20.68,11.39,38.61,26.14,53.78,44.23c7.98,9.51,8.67,20.24,1.78,30.58
			c-1.35,2.03-1.18,4.2-0.68,6.25c0.67,2.75,3.93,3.11,5.9,0.76c2.73-3.26,5.2-6.73,7.57-10.26c0.45-0.68,0.95-1.32,1.57-2.19
			c5.96,13.17,8.86,26.52,5.66,40.56c-2.88,12.68-10.99,21.47-22.33,27.38c-8.38,4.36-17.38,6.56-27.04,7.05
			c2.7-5.99,5.26-11.86,7.4-17.89c8.17-23.12,11.86-46.92,10.71-71.44c-0.07-1.42-0.02-2.84-0.11-4.25
			c-0.15-2.31-1.64-3.79-3.78-3.85c-2.15-0.06-4.1,1.55-4.26,3.74c-0.14,1.91-0.07,3.83-0.05,5.75c0.18,12.44-0.67,24.81-2.49,37.12
			c-0.44,2.95-1.61,5.28-3.97,7.21c-10.11,8.24-20.84,15.55-32.3,21.78c-1.53,0.83-2.85,1.78-3.18,3.6
			c-0.29,1.62,0.33,2.96,1.57,3.98c1.38,1.13,2.89,1.14,4.44,0.36c5.67-2.85,11.04-6.21,16.31-9.73c2.42-1.62,4.79-3.33,7.18-5
			c0.94-0.66,1.9-1.13,2.98-0.35c1.04,0.76,1.03,1.74,0.67,2.9c-2.24,7.34-5,14.49-8.49,21.32c-1.94,3.79-5.22,5.42-9.5,5.06
			c-30.2-2.56-57.77-12.67-83.22-28.89c-7.18-4.58-14.07-9.55-20.72-14.86c-2.29-1.83-3.46-4.11-3.93-6.97
			c-2.12-12.87-2.85-25.83-2.64-38.86c0.02-1.07-0.02-2.18-0.27-3.22c-0.51-2.13-2.44-3.48-4.41-3.25
			c-2.14,0.24-3.69,1.75-3.72,4.01c-0.12,9.17-0.12,18.34,0.77,27.49c0.26,2.69,0.53,5.38,0.86,8.64L54.43,221.29z M104.19,193.01
			c-0.02,14.22,11.31,25.63,25.48,25.65c14.37,0.03,25.78-11.29,25.81-25.58c0.03-14.16-11.36-25.63-25.5-25.67
			c-14.35-0.05-25.78,11.3-25.8,25.6H104.19z M164.1,193.2c0,2-0.06,4,0.02,5.99c0.09,2.31,1.17,2.99,3.29,1.98
			c4.13-1.96,8.24-3.97,12.31-6.06c1.87-0.96,1.89-2.59,0.04-3.57c-4.12-2.17-8.29-4.25-12.48-6.27c-1.93-0.93-3.05-0.21-3.15,1.94
			C164.04,189.2,164.11,191.2,164.1,193.2L164.1,193.2z M95.55,156.42c-2.05-0.17-2.86,0.86-2.25,2.69c1.48,4.42,3,8.82,4.6,13.2
			c0.74,2.03,1.99,2.28,3.58,0.75c2.29-2.19,4.49-4.47,6.73-6.71c3.84-3.85,3.76-4.22-1.4-6.01c-3.85-1.34-7.71-2.68-11.27-3.91
			L95.55,156.42z M129.59,158.89c1.91,0,3.83,0.04,5.74,0c2.62-0.06,3.33-1.12,2.22-3.47c-1.88-3.98-3.86-7.91-5.8-11.86
			c-0.41-0.84-0.85-1.66-1.98-1.61c-0.97,0.05-1.44,0.71-1.82,1.48c-2.01,4.1-4.06,8.18-6.02,12.31c-0.91,1.91-0.2,3.04,1.93,3.13
			C125.77,158.96,127.69,158.89,129.59,158.89L129.59,158.89z M163.97,229.92c2.17,0.15,3.05-0.86,2.46-2.68
			c-1.44-4.42-2.97-8.82-4.57-13.19c-0.69-1.89-1.96-2.15-3.43-0.75c-2.05,1.95-4.01,3.99-6.02,5.99c-3.28,3.28-2.76,5.68,1.56,7.19
			C157.42,227.68,160.89,228.85,163.97,229.92L163.97,229.92z M129.87,227.47c-2.08,0-4.17-0.08-6.24,0.02
			c-1.81,0.09-2.63,1.04-1.77,2.83c2.04,4.27,4.09,8.55,6.24,12.77c0.92,1.8,2.5,1.86,3.4,0.12c2.19-4.2,4.29-8.45,6.28-12.75
			c0.87-1.88,0.03-2.94-2.17-2.99C133.7,227.42,131.78,227.46,129.87,227.47L129.87,227.47z M93.23,227.56
			c0.09,1.72,0.78,2.72,2.52,2.15c4.58-1.5,9.14-3.06,13.67-4.7c1.61-0.58,1.96-1.84,0.72-3.12c-2.95-3.05-5.96-6.04-9-9
			c-1.04-1.01-2.36-0.93-2.87,0.43c-1.79,4.73-3.39,9.54-5.04,14.25V227.56z M164.59,156.4c-0.29,0.04-0.46,0.04-0.62,0.09
			c-4.71,1.66-9.46,3.25-14.12,5.04c-1.44,0.55-1.26,1.88-0.29,2.87c2.91,2.98,5.85,5.94,8.85,8.85c1.25,1.21,2.53,1.01,3.14-0.65
			c1.66-4.53,3.24-9.1,4.75-13.68C166.79,157.43,166.09,156.52,164.59,156.4z M95.51,193.38c0-2.08,0.06-4.16-0.02-6.23
			c-0.08-2.18-1.12-2.84-3.11-1.9c-4.13,1.95-8.24,3.95-12.31,6.03c-2.03,1.04-2.04,2.63-0.03,3.66c4.15,2.11,8.34,4.13,12.55,6.1
			c1.81,0.85,2.81,0.16,2.89-1.93C95.56,197.2,95.5,195.29,95.51,193.38L95.51,193.38z"/>
		<path class="st1" d="M70.91,276.89c-18.34-0.54-41.36-9.6-48.38-31.01c-1.89-5.76-1.97-11.61-1.76-17.53
			c0.28-7.87,3.33-19.65,6.75-25.9c0.62-0.02,0.85,0.47,1.12,0.87c20.35,29.23,47.42,50.27,79.51,65.17
			c0.6,0.28,1.22,0.54,1.81,0.85c0.98,0.5,1.52,1.3,1.41,2.42c-0.13,1.28-1.04,1.89-2.16,2.11c-3.76,0.74-7.51,1.52-11.3,2.09
			c-3.38,0.5-6.79,0.81-10.19,1.07c-4.6,0.35-7.86-1.68-9.82-5.83c-1.03-2.18-2.02-4.39-3.04-6.57c-1.24-2.66-3.55-3.73-5.84-2.73
			c-2.34,1.02-3.18,3.36-2.04,6.08c1.24,2.97,2.59,5.9,3.92,8.92L70.91,276.89z"/>
		<path class="st1" d="M172.94,100.44c-5.35,0.64-10.66,0.99-15.91,1.86c-7.82,1.29-15.53,3-23.05,5.48
			c-2.81,0.93-5.48,0.95-8.3,0.02c-7.92-2.61-16.06-4.36-24.27-5.76c-3.19-0.54-5.5,0.83-5.9,3.47c-0.37,2.46,1.42,4.37,4.52,4.9
			c2.95,0.51,5.9,1.08,8.83,1.66c1.12,0.22,2.04,0.78,2.2,2.07c0.15,1.21-0.3,2.14-1.42,2.65c-14.7,6.65-28.44,14.94-41.59,24.74
			c-0.12-1.6,0.46-2.78,0.82-3.96c5.53-18.13,13.58-34.89,26.8-48.79c7.23-7.61,15.76-13.15,26.24-14.97
			c9.12-1.58,18.1-0.91,26.49,3.5c10.05,5.28,17.73,13.15,24.26,22.26c0.13,0.19,0.16,0.45,0.29,0.86L172.94,100.44z"/>
		<path class="st1" d="M173.27,285.78c-9.47,12.74-19.97,23.34-35.86,26.37c-9.14,1.74-18.1,0.71-26.44-3.74
			c-9.42-5.03-17.2-11.94-23.36-20.67c-0.87-1.23-1.48-2.05,0.85-2.2c12.68-0.81,25.07-3.25,37.17-7.12
			c2.83-0.9,5.45-0.92,8.29-0.01c12.34,3.93,25,6.31,37.93,7.15c0.31,0.02,0.61,0.09,1.43,0.21L173.27,285.78z"/>
		<path class="st1" d="M27.33,184.26c-3.17-6.8-5.52-13.4-6.28-20.34c-0.97-8.79-1.05-17.58,2.44-26.08
			c4.6-11.2,13.21-18.11,23.78-23.07c6.94-3.25,14.25-5.05,21.87-5.69c1.45-0.12,2.06,0.03,1.25,1.68
			c-6.05,12.4-10.45,25.36-13.12,38.9c-0.15,0.77-0.5,1.38-1.1,1.9c-10.96,9.49-20.46,20.27-28.85,32.71L27.33,184.26z"/>
		<path class="st1" d="M231.79,183.88c-7.96-11.95-17.22-22.61-27.89-32.03c-1.05-0.93-1.56-2.12-1.84-3.46
			c-2.63-12.77-6.82-25.01-12.45-36.76c-1.14-2.37-1.06-2.5,1.56-2.26c10.88,0.98,21.04,4.08,30.07,10.41
			c13.63,9.55,19.03,22.83,17.63,39.13c-0.65,7.59-2.34,14.94-5.37,21.96c-0.36,0.84-0.73,1.68-1.12,2.51
			c-0.06,0.14-0.24,0.22-0.59,0.52V183.88z"/>
	</g>
</g>
</svg>
